<svg xmlns="http://www.w3.org/2000/svg" xmlns:xlink="http://www.w3.org/1999/xlink" width="500" zoomAndPan="magnify" viewBox="0 0 375 337.499995" height="450" preserveAspectRatio="xMidYMid meet" version="1.0"><defs><clipPath id="1cb28cad2b"><path d="M 367.273438 36.09375 L 373.265625 36.09375 L 373.265625 41.21875 L 367.273438 41.21875 Z M 367.273438 36.09375 " clip-rule="nonzero"/></clipPath><clipPath id="83984ff823"><path d="M 69 0 L 365 0 L 365 335 L 69 335 Z M 69 0 " clip-rule="nonzero"/></clipPath><clipPath id="886a0f709f"><path d="M 438.414062 156.878906 L 217.324219 385.835938 L 14.226562 189.714844 L 235.316406 -39.238281 Z M 438.414062 156.878906 " clip-rule="nonzero"/></clipPath><clipPath id="635d06f233"><path d="M 438.414062 156.878906 L 217.324219 385.835938 L 14.226562 189.714844 L 235.316406 -39.238281 Z M 438.414062 156.878906 " clip-rule="nonzero"/></clipPath></defs><g clip-path="url(#1cb28cad2b)"><path fill="#ff000d" d="M 367.324219 41.304688 C 367.300781 40.96875 367.277344 40.621094 367.367188 40.292969 C 367.441406 40.03125 367.59375 39.777344 367.828125 39.632812 C 368.09375 39.46875 368.421875 39.472656 368.722656 39.492188 C 369.019531 39.507812 369.328125 39.542969 369.621094 39.449219 C 369.757812 39.410156 369.878906 39.335938 369.980469 39.234375 C 370.074219 39.140625 370.144531 39.027344 370.195312 38.90625 C 370.308594 38.65625 370.34375 38.378906 370.375 38.109375 C 370.40625 37.8125 370.433594 37.507812 370.550781 37.230469 C 370.609375 37.097656 370.6875 36.976562 370.785156 36.875 C 370.882812 36.777344 370.996094 36.699219 371.117188 36.632812 C 371.652344 36.339844 372.285156 36.355469 372.835938 36.097656 C 372.902344 36.066406 372.972656 36.027344 373.035156 35.988281 C 373.054688 35.976562 373.109375 36 373.085938 36.019531 C 372.566406 36.351562 371.917969 36.339844 371.355469 36.570312 C 371.101562 36.675781 370.859375 36.835938 370.707031 37.070312 C 370.542969 37.324219 370.492188 37.628906 370.457031 37.925781 C 370.398438 38.429688 370.367188 39.0625 369.894531 39.371094 C 369.644531 39.535156 369.332031 39.550781 369.042969 39.539062 C 368.738281 39.527344 368.425781 39.480469 368.125 39.558594 C 367.980469 39.59375 367.847656 39.664062 367.738281 39.765625 C 367.640625 39.859375 367.5625 39.976562 367.503906 40.101562 C 367.367188 40.402344 367.355469 40.738281 367.367188 41.0625 C 367.371094 41.144531 367.378906 41.226562 367.382812 41.3125 C 367.386719 41.335938 367.324219 41.324219 367.324219 41.304688 Z M 367.324219 41.304688 " fill-opacity="1" fill-rule="nonzero"/></g><g clip-path="url(#83984ff823)"><g clip-path="url(#886a0f709f)"><g clip-path="url(#635d06f233)"><path fill="#ff000d" d="M 162.90625 324.074219 C 170.585938 327.703125 178.597656 330.449219 186.855469 332.230469 C 203.632812 335.875 221.046875 335.835938 237.828125 332.085938 C 244.367188 330.65625 252.03125 328.6875 259.375 325.625 C 264.152344 323.617188 268.65625 321 272.714844 317.867188 C 275.695312 315.671875 278.628906 313.253906 281.433594 310.976562 C 283.246094 309.457031 285.144531 307.933594 287 306.457031 C 289.246094 304.667969 291.621094 302.921875 293.910156 301.175781 C 298.789062 297.457031 303.839844 293.648438 308.492188 289.457031 C 322.621094 276.695312 334.570312 261.738281 343.773438 245.082031 C 348.355469 236.773438 352.273438 228.085938 355.351562 219.105469 C 356.101562 216.90625 356.804688 214.660156 357.511719 212.417969 C 370.402344 168.785156 364.371094 119.269531 341.238281 79.988281 C 318.105469 40.703125 277.816406 11.347656 233.316406 1.492188 C 223.257812 -0.738281 216.496094 0.386719 212.503906 4.875 C 207.957031 10.03125 209.261719 17.054688 210.515625 23.855469 C 211.195312 27.609375 211.917969 31.402344 211.71875 34.996094 C 211.148438 44.9375 202.925781 52.652344 195.421875 56.5 C 189.046875 59.808594 181.945312 61.550781 175.105469 63.289062 C 172.800781 63.898438 170.445312 64.464844 168.09375 65.117188 C 144.144531 71.75 122.238281 85.261719 104.960938 103.152344 C 91.894531 116.59375 81.628906 132.570312 74.933594 150.101562 C 69.414062 164.640625 68.347656 176.429688 71.671875 186.347656 C 76.472656 200.527344 89.578125 209.398438 102.289062 217.972656 C 115.304688 226.757812 128.722656 235.84375 132.523438 250.523438 C 134.351562 257.449219 133.648438 264.855469 132.988281 272.046875 C 132.324219 279.234375 131.582031 286.773438 133.5 293.957031 C 137.355469 309.117188 151.65625 318.714844 162.90625 324.074219 Z M 134.632812 293.5 C 132.847656 286.53125 133.503906 279.167969 134.210938 272.023438 C 134.871094 264.75 135.574219 257.253906 133.742188 250.066406 C 129.84375 234.949219 116.207031 225.738281 102.96875 216.824219 C 90.433594 208.335938 77.507812 199.632812 72.847656 185.84375 C 69.617188 176.273438 70.679688 164.660156 76.121094 150.476562 C 91.476562 110.082031 126.835938 77.828125 168.464844 66.25 C 170.773438 65.640625 173.167969 65.027344 175.476562 64.417969 C 182.402344 62.679688 189.550781 60.890625 196.054688 57.539062 C 199.609375 55.726562 202.847656 53.265625 205.601562 50.417969 C 209.597656 46.277344 212.570312 41.0625 212.945312 34.972656 C 213.183594 31.25 212.414062 27.324219 211.734375 23.484375 C 210.480469 16.683594 209.273438 10.269531 213.4375 5.601562 C 217.082031 1.46875 223.5 0.527344 233.03125 2.589844 C 277.179688 12.453125 317.246094 41.59375 340.199219 80.617188 C 363.152344 119.640625 369.132812 168.765625 356.238281 212.132812 C 355.574219 214.332031 354.871094 216.578125 354.121094 218.777344 C 351.039062 227.671875 347.207031 236.269531 342.671875 244.53125 C 333.507812 261.058594 321.648438 275.921875 307.648438 288.550781 C 303.039062 292.699219 297.984375 296.507812 293.105469 300.226562 C 290.816406 301.972656 288.484375 303.761719 286.195312 305.511719 C 284.339844 306.984375 282.441406 308.507812 280.628906 310.027344 C 277.824219 312.308594 274.894531 314.722656 271.957031 316.960938 C 267.894531 320.007812 263.523438 322.578125 258.875 324.539062 C 251.621094 327.597656 244.039062 329.480469 237.589844 330.90625 C 220.984375 334.652344 203.785156 334.648438 187.140625 331.046875 C 178.96875 329.261719 171.003906 326.558594 163.457031 322.96875 C 152.382812 317.695312 138.433594 308.355469 134.632812 293.5 Z M 193.546875 322.09375 C 201.277344 323.796875 209.210938 324.664062 217.085938 324.613281 C 219.582031 324.613281 222.117188 324.484375 224.609375 324.308594 C 230.113281 323.863281 235.570312 323.023438 240.929688 321.746094 C 246.59375 320.421875 253.957031 318.5 260.945312 315.445312 C 265.375 313.53125 269.53125 311.007812 273.332031 308.054688 C 275.621094 306.308594 277.734375 304.5625 279.546875 303.042969 L 281.789062 301.167969 C 283.296875 299.871094 284.9375 298.53125 286.53125 297.234375 C 288.472656 295.667969 290.414062 294.101562 292.402344 292.582031 C 297.0625 288.910156 301.8125 285.152344 306.246094 281.003906 C 312.703125 274.941406 318.582031 268.40625 323.972656 261.398438 C 329.324219 254.523438 334.097656 247.261719 338.207031 239.621094 C 342.363281 232.023438 345.855469 224.042969 348.601562 215.769531 C 349.265625 213.742188 349.929688 211.71875 350.503906 209.609375 C 355.449219 192.019531 357.359375 173.738281 356.078125 155.558594 C 354.515625 131.257812 347.105469 107.671875 334.574219 86.796875 C 323.808594 69.179688 309.625 53.847656 292.832031 41.757812 C 276.078125 29.625 257.070312 21.074219 236.863281 16.613281 C 227.816406 14.671875 221.707031 15.652344 218.058594 19.699219 C 213.894531 24.367188 215.011719 30.605469 216.082031 36.710938 C 216.664062 40.027344 217.292969 43.472656 216.996094 46.628906 C 216.472656 54.121094 210.910156 61.304688 202.28125 65.875 C 195.953125 69.226562 188.984375 71.183594 182.191406 73.140625 C 180.40625 73.652344 178.621094 74.167969 176.796875 74.722656 C 152.898438 81.921875 131.464844 94.945312 115.21875 111.769531 C 109.246094 117.953125 103.9375 124.699219 99.382812 131.996094 C 95.300781 138.632812 91.878906 145.738281 89.25 153.089844 C 84.453125 166.519531 83.726562 177.515625 87.125 186.734375 C 91.765625 199.296875 103.542969 207.230469 114.921875 214.863281 C 119.261719 217.765625 123.734375 220.792969 127.769531 224.003906 C 136.648438 231.113281 141.445312 237.808594 143.421875 245.738281 C 145.023438 252.101562 144.351562 258.9375 143.8125 265.554688 C 143.230469 272.304688 142.519531 279.273438 144.257812 285.9375 C 147.875 300.183594 160.984375 309.230469 171.355469 314.257812 C 178.460938 317.761719 185.859375 320.347656 193.546875 322.09375 Z M 145.523438 285.785156 C 143.878906 279.378906 144.503906 272.5 145.085938 265.839844 C 145.671875 259.175781 146.292969 252.210938 144.6875 245.585938 C 142.664062 237.351562 137.6875 230.480469 128.632812 223.199219 C 124.550781 219.945312 120.121094 216.960938 115.738281 214.019531 C 104.492188 206.515625 92.890625 198.664062 88.390625 186.492188 C 85.128906 177.578125 85.773438 166.847656 90.488281 153.683594 C 93.117188 146.414062 96.449219 139.398438 100.535156 132.851562 C 105.003906 125.640625 110.3125 118.898438 116.199219 112.800781 C 132.273438 96.15625 153.535156 83.226562 177.210938 76.074219 C 178.996094 75.558594 180.78125 75.046875 182.609375 74.492188 C 189.445312 72.488281 196.457031 70.484375 202.871094 67.136719 C 206.125 65.460938 209.0625 63.308594 211.597656 60.679688 C 215.511719 56.632812 217.917969 51.820312 218.226562 46.871094 C 218.429688 43.539062 217.84375 40.050781 217.261719 36.648438 C 216.234375 30.582031 215.21875 24.867188 218.996094 20.691406 C 222.300781 17 228.015625 16.15625 236.625 18.019531 C 276.023438 26.5625 312.316406 52.578125 333.539062 87.605469 C 345.976562 108.304688 353.34375 131.671875 354.902344 155.796875 C 356.136719 173.847656 354.222656 191.953125 349.363281 209.367188 C 348.785156 211.386719 348.121094 213.414062 347.457031 215.4375 C 344.710938 223.625 341.261719 231.472656 337.191406 239.070312 C 333.082031 246.625 328.304688 253.882812 323.042969 260.671875 C 317.695312 267.632812 311.769531 274.125 305.355469 280.144531 C 300.964844 284.25 296.214844 288.007812 291.597656 291.632812 C 289.699219 293.152344 287.671875 294.71875 285.726562 296.285156 C 284.132812 297.582031 282.539062 298.964844 280.941406 300.261719 L 278.699219 302.140625 C 276.886719 303.660156 274.773438 305.402344 272.527344 307.105469 C 268.773438 310.015625 264.746094 312.40625 260.402344 314.316406 C 253.542969 317.328125 246.222656 319.203125 240.644531 320.527344 C 235.328125 321.757812 229.960938 322.59375 224.542969 323.039062 C 222.097656 323.257812 219.601562 323.34375 217.109375 323.34375 C 209.277344 323.351562 201.472656 322.523438 193.785156 320.777344 C 186.230469 319.070312 178.878906 316.53125 171.90625 313.152344 C 161.757812 308.339844 148.957031 299.59375 145.523438 285.785156 Z M 200.238281 311.957031 C 207.355469 313.582031 214.675781 314.375 221.984375 314.289062 C 224.300781 314.292969 226.664062 314.164062 228.933594 313.949219 C 234.046875 313.554688 239.109375 312.679688 244.074219 311.453125 C 251.742188 309.570312 257.441406 307.675781 262.5625 305.308594 C 266.601562 303.445312 270.453125 301.058594 273.949219 298.328125 C 276.109375 296.628906 278.089844 294.929688 279.6875 293.632812 L 282.230469 291.445312 C 283.480469 290.328125 284.816406 289.210938 286.109375 288.140625 C 287.664062 286.800781 289.257812 285.503906 290.855469 284.207031 C 295.253906 280.542969 299.828125 276.785156 304 272.730469 C 309.808594 266.984375 315.210938 260.765625 320.085938 254.203125 C 324.832031 247.949219 329.046875 241.269531 332.777344 234.289062 C 336.460938 227.355469 339.53125 220.082031 341.980469 212.558594 C 342.644531 210.535156 343.183594 208.730469 343.675781 206.972656 C 348.03125 190.703125 349.617188 173.832031 348.40625 157.09375 C 346.917969 134.671875 339.84375 112.960938 327.917969 93.960938 C 318.105469 78.378906 305.355469 64.949219 290.421875 54.226562 C 275.488281 43.507812 258.554688 36.011719 240.546875 32.128906 C 232.597656 30.472656 227.1875 31.265625 223.921875 34.648438 L 223.707031 34.871094 C 219.972656 39.007812 220.8125 44.550781 221.648438 49.917969 C 222.09375 52.839844 222.542969 55.851562 222.328125 58.65625 C 221.785156 65.183594 216.820312 71.574219 209.105469 75.644531 C 202.472656 79.21875 195.597656 81.441406 188.417969 83.796875 L 185.546875 84.722656 C 167.402344 90.683594 144.09375 101.375 126.042969 120.066406 C 121.097656 125.1875 116.691406 130.820312 112.902344 136.792969 C 109.070312 142.988281 105.949219 149.605469 103.664062 156.515625 C 99.589844 168.75 99.289062 179.214844 102.71875 187.597656 C 107.199219 198.546875 117.644531 205.453125 127.785156 212.234375 C 132.078125 215.089844 136.550781 218.03125 140.5 221.242188 C 148.3125 227.671875 152.757812 234.023438 154.460938 241.347656 C 155.875 247.183594 155.285156 253.410156 154.777344 259.457031 C 154.183594 265.679688 153.640625 272.121094 155.148438 278.308594 C 158.445312 291.554688 170.40625 299.921875 179.851562 304.65625 C 186.296875 307.867188 193.121094 310.332031 200.238281 311.957031 Z M 156.371094 278.023438 C 154.867188 272.101562 155.5 265.746094 156.003906 259.609375 C 156.597656 253.472656 157.144531 247.117188 155.726562 241.105469 C 153.929688 233.523438 149.351562 226.863281 141.316406 220.308594 C 137.320312 217.054688 132.847656 214.113281 128.511719 211.214844 C 118.0625 204.308594 108.234375 197.742188 103.894531 187.183594 C 100.601562 179.101562 100.902344 168.902344 104.851562 156.976562 C 107.097656 150.195312 110.175781 143.625 113.921875 137.519531 C 132.097656 108.453125 163.121094 93.429688 185.917969 85.941406 L 188.746094 85.058594 C 195.75 82.792969 202.929688 80.4375 209.691406 76.816406 C 212.597656 75.324219 215.234375 73.308594 217.554688 70.992188 C 221.035156 67.386719 223.148438 63.148438 223.511719 58.855469 C 223.765625 55.917969 223.320312 52.820312 222.785156 49.808594 C 221.949219 44.441406 221.160156 39.46875 224.554688 35.777344 C 227.515625 32.53125 232.621094 31.785156 240.21875 33.359375 C 275.53125 40.792969 307.03125 63.125 326.835938 94.636719 C 338.671875 113.460938 345.65625 135 347.136719 157.160156 C 348.347656 173.808594 346.757812 190.507812 342.445312 206.640625 C 341.992188 208.355469 341.457031 210.160156 340.792969 212.183594 C 338.339844 219.621094 335.316406 226.851562 331.671875 233.742188 C 328.03125 240.632812 323.8125 247.222656 319.066406 253.476562 C 314.234375 259.992188 308.875 266.167969 303.109375 271.871094 C 298.9375 275.925781 294.453125 279.679688 290.007812 283.300781 C 288.410156 284.597656 286.859375 285.9375 285.265625 287.234375 C 283.96875 288.308594 282.675781 289.46875 281.382812 290.542969 L 278.882812 292.6875 C 277.375 293.980469 275.347656 295.722656 273.1875 297.335938 C 269.734375 300.023438 266.011719 302.363281 262.019531 304.183594 C 256.984375 306.457031 251.371094 308.351562 243.789062 310.234375 C 238.867188 311.414062 233.894531 312.289062 228.867188 312.683594 C 226.597656 312.894531 224.28125 312.980469 221.960938 312.976562 C 214.742188 313.058594 207.507812 312.265625 200.523438 310.683594 C 193.539062 309.097656 186.800781 306.722656 180.402344 303.550781 C 171.132812 298.988281 159.523438 290.789062 156.371094 278.023438 Z M 206.886719 301.777344 C 213.433594 303.28125 220.097656 304.039062 226.789062 303.964844 C 228.933594 303.972656 231.121094 303.847656 233.21875 303.636719 C 237.9375 303.203125 242.601562 302.378906 247.175781 301.203125 C 253.015625 299.789062 258.667969 297.765625 264.09375 295.261719 C 267.824219 293.449219 271.375 291.199219 274.566406 288.605469 C 276.121094 287.351562 277.761719 286.011719 279.785156 284.179688 L 282.671875 281.636719 C 283.664062 280.789062 284.609375 279.894531 285.601562 279.046875 L 289.136719 275.921875 C 293.359375 272.261719 297.710938 268.464844 301.710938 264.324219 L 301.753906 264.28125 C 306.910156 258.851562 311.75 253.035156 316.109375 246.921875 C 320.253906 241.203125 323.996094 235.1875 327.257812 228.875 C 330.515625 222.558594 333.15625 215.992188 335.269531 209.261719 C 335.851562 207.328125 336.347656 205.742188 336.714844 204.203125 C 340.359375 189.921875 341.710938 174.539062 340.640625 158.453125 C 339.230469 137.914062 332.582031 118.074219 321.253906 100.859375 C 303.09375 73.085938 274.964844 53.578125 244.140625 47.378906 C 237.027344 45.929688 232.226562 46.800781 229.304688 49.828125 C 225.910156 53.429688 226.609375 58.230469 227.214844 62.945312 C 227.566406 65.433594 227.875 68.054688 227.652344 70.507812 C 227.050781 76.121094 222.683594 81.621094 215.96875 85.285156 C 208.683594 89.261719 201.25 92.0625 194.25 94.589844 C 176.945312 100.84375 153.796875 110.742188 136.863281 128.28125 C 132.953125 132.328125 129.441406 136.765625 126.375 141.546875 C 122.753906 147.253906 119.929688 153.386719 117.984375 159.851562 C 114.59375 171.027344 114.675781 180.652344 118.222656 188.378906 C 122.5 197.753906 131.703125 203.71875 140.558594 209.515625 C 144.851562 212.285156 149.277344 215.183594 153.097656 218.441406 C 160.023438 224.269531 163.976562 230.152344 165.453125 236.996094 C 166.640625 242.269531 166.128906 247.96875 165.609375 253.402344 C 165.097656 259.101562 164.589844 265.058594 165.914062 270.726562 C 168.839844 282.925781 179.695312 290.742188 188.21875 295.101562 C 194.21875 297.972656 200.429688 300.269531 206.886719 301.777344 Z M 167.175781 270.308594 C 165.851562 264.820312 166.363281 259.035156 166.878906 253.425781 C 167.394531 247.816406 167.90625 242.117188 166.671875 236.625 C 165.105469 229.519531 161.015625 223.421875 153.910156 217.421875 C 150.003906 214.164062 145.53125 211.222656 141.238281 208.453125 C 132.121094 202.488281 123.445312 196.863281 119.351562 187.832031 C 115.9375 180.410156 115.90625 171.089844 119.21875 160.179688 C 121.121094 153.847656 123.859375 147.804688 127.390625 142.183594 C 143.699219 116.390625 173.617188 103.308594 194.707031 95.71875 C 201.710938 93.191406 209.1875 90.347656 216.554688 86.367188 C 219.113281 84.964844 221.488281 83.21875 223.507812 81.125 C 226.558594 77.964844 228.464844 74.300781 228.882812 70.664062 C 229.144531 68.074219 228.789062 65.414062 228.4375 62.835938 C 227.832031 58.210938 227.234375 53.933594 230.195312 50.773438 L 230.324219 50.640625 C 232.90625 47.96875 237.355469 47.28125 243.945312 48.652344 C 274.460938 54.8125 302.277344 74.105469 320.261719 101.621094 C 331.457031 118.621094 338.054688 138.238281 339.503906 158.5625 C 340.570312 174.46875 339.261719 189.808594 335.617188 203.917969 C 335.203125 205.414062 334.792969 206.996094 334.214844 208.929688 C 332.144531 215.617188 329.457031 222.140625 326.285156 228.367188 C 323.070312 234.636719 319.367188 240.609375 315.222656 246.238281 C 310.90625 252.308594 306.152344 258.035156 300.996094 263.464844 L 300.953125 263.507812 C 296.996094 267.601562 292.6875 271.355469 288.464844 275.015625 L 284.972656 278.09375 L 282.042969 280.683594 C 281.09375 281.578125 280.148438 282.378906 279.15625 283.230469 C 277.085938 285.015625 275.535156 286.355469 273.9375 287.652344 C 270.789062 290.203125 267.367188 292.316406 263.769531 294.085938 C 258.386719 296.542969 252.773438 298.523438 247.023438 299.9375 C 242.496094 301.152344 237.871094 301.933594 233.238281 302.367188 C 231.140625 302.578125 229 302.660156 226.898438 302.695312 C 220.292969 302.765625 213.71875 302.09375 207.261719 300.589844 C 200.933594 299.125 194.769531 296.867188 188.941406 293.90625 C 180.550781 289.589844 170.046875 282.03125 167.175781 270.308594 Z M 213.535156 291.597656 C 219.46875 293.023438 225.519531 293.707031 231.597656 293.554688 C 233.609375 293.519531 235.53125 293.398438 237.542969 293.191406 C 241.867188 292.71875 246.140625 291.945312 250.363281 290.777344 C 255.679688 289.371094 260.851562 287.398438 265.796875 284.949219 C 269.179688 283.230469 272.335938 281.117188 275.269531 278.703125 C 276.691406 277.496094 278.203125 276.203125 280.011719 274.59375 C 281.085938 273.570312 282.25 272.542969 283.328125 271.515625 L 285.21875 269.734375 L 287.375 267.769531 C 291.464844 263.980469 295.730469 260.097656 299.550781 255.875 C 304.140625 250.761719 308.378906 245.304688 312.261719 239.59375 C 315.847656 234.457031 319.078125 229.0625 321.867188 223.410156 C 324.65625 217.761719 326.917969 211.945312 328.691406 205.921875 C 329.1875 204.160156 329.601562 202.753906 329.925781 201.433594 C 332.984375 188.648438 334.007812 174.585938 332.964844 159.8125 C 331.628906 141.152344 325.277344 123.234375 314.550781 107.890625 C 298.210938 84.195312 273.855469 67.730469 247.734375 62.71875 C 241.632812 61.558594 237.441406 62.242188 234.90625 64.867188 C 231.941406 67.941406 232.363281 72.046875 232.78125 75.976562 C 233.082031 78.070312 233.117188 80.171875 232.980469 82.273438 C 232.089844 88.984375 225.558594 93.253906 222.828125 94.835938 C 216.460938 98.488281 209.863281 101.667969 203.042969 104.457031 C 184.054688 112.007812 163.023438 120.425781 148.195312 135.78125 C 145.101562 138.988281 142.316406 142.492188 139.890625 146.253906 C 136.566406 151.476562 134.085938 157.164062 132.441406 163.144531 C 130.59375 170.132812 129.28125 180.308594 133.855469 189.109375 C 137.929688 196.914062 145.851562 201.984375 153.464844 206.839844 C 157.710938 209.566406 162.089844 212.332031 165.824219 215.59375 C 171.867188 220.824219 175.242188 226.148438 176.535156 232.472656 C 177.492188 237.179688 177.054688 242.265625 176.617188 247.171875 C 176.136719 252.386719 175.664062 257.777344 176.890625 262.917969 C 179.492188 274.121094 189.15625 281.300781 196.800781 285.414062 C 202.054688 288.078125 207.734375 290.210938 213.535156 291.597656 Z M 178.066406 262.503906 C 176.929688 257.539062 177.359375 252.277344 177.796875 247.109375 C 178.234375 242.113281 178.710938 236.984375 177.707031 232.058594 C 176.367188 225.429688 172.8125 219.847656 166.589844 214.441406 C 162.816406 211.140625 158.390625 208.328125 154.054688 205.605469 C 146.175781 200.578125 138.746094 195.894531 134.847656 188.347656 C 130.5 179.9375 131.773438 170.070312 133.582031 163.300781 C 135.140625 157.40625 137.582031 151.851562 140.816406 146.71875 C 154.917969 124.8125 180.683594 114.519531 203.410156 105.5 C 210.277344 102.753906 216.917969 99.53125 223.328125 95.917969 C 225.625 94.699219 227.699219 93.085938 229.546875 91.261719 C 232.128906 88.589844 233.738281 85.585938 234.164062 82.472656 C 234.386719 80.28125 234.304688 78.050781 234.003906 75.867188 C 233.589844 72.023438 233.21875 68.398438 235.796875 65.726562 C 238.03125 63.414062 241.871094 62.820312 247.535156 63.902344 C 273.394531 68.835938 297.4375 85.085938 313.601562 108.519531 C 324.148438 123.691406 330.410156 141.4375 331.738281 159.835938 C 332.738281 174.476562 331.710938 188.363281 328.695312 201.105469 C 328.414062 202.378906 328 203.789062 327.503906 205.546875 C 325.773438 211.527344 323.464844 217.300781 320.761719 222.863281 C 317.972656 228.421875 314.828125 233.730469 311.242188 238.867188 C 307.402344 244.535156 303.207031 249.949219 298.617188 255.058594 C 294.839844 259.238281 290.617188 263.074219 286.527344 266.867188 L 284.375 268.828125 L 282.480469 270.613281 C 281.402344 271.636719 280.285156 272.707031 279.164062 273.691406 C 277.398438 275.339844 275.890625 276.636719 274.464844 277.753906 C 271.621094 280.167969 268.503906 282.148438 265.207031 283.867188 C 260.347656 286.226562 255.21875 288.15625 249.992188 289.558594 C 245.855469 290.726562 241.667969 291.5 237.386719 291.921875 C 235.464844 292.132812 233.5 292.210938 231.53125 292.289062 C 225.582031 292.390625 219.578125 291.753906 213.777344 290.367188 C 208.019531 289.023438 202.46875 286.933594 197.257812 284.136719 C 189.925781 280.238281 180.570312 273.269531 178.066406 262.503906 Z M 220.226562 281.460938 C 225.546875 282.808594 231.023438 283.371094 236.492188 283.230469 C 238.285156 283.15625 240.121094 283.035156 241.867188 282.832031 C 245.796875 282.414062 249.722656 281.554688 253.464844 280.441406 C 258.253906 279.042969 262.902344 277.167969 267.324219 274.816406 C 270.359375 273.1875 273.214844 271.210938 275.84375 268.933594 C 277.179688 267.816406 278.515625 266.613281 280.0625 265.097656 C 281.3125 263.894531 282.601562 262.648438 283.851562 261.445312 L 285.183594 260.152344 C 289.273438 256.1875 293.488281 252 297.257812 247.558594 C 301.246094 242.71875 304.917969 237.664062 308.238281 232.355469 C 311.265625 227.796875 313.984375 223.023438 316.304688 218.039062 C 318.621094 213.054688 320.5 207.902344 321.941406 202.582031 C 322.269531 201.4375 322.59375 200.03125 322.921875 198.625 C 325.304688 187.25 326.089844 174.679688 325.152344 161.132812 C 324.039062 144.917969 317.886719 128.484375 307.847656 114.832031 C 293.460938 95.261719 272.878906 81.839844 251.328125 78.058594 C 248.078125 77.503906 243.390625 77.015625 240.507812 79.910156 L 240.378906 80.042969 C 237.972656 82.535156 238.117188 85.859375 238.304688 89.050781 C 238.464844 90.753906 238.453125 92.460938 238.21875 94.128906 C 237.585938 97.902344 234.410156 101.632812 229.558594 104.429688 L 226.136719 106.460938 C 221.464844 109.34375 216.605469 111.878906 211.617188 114.195312 C 208.140625 115.746094 204.449219 117.253906 200.929688 118.757812 C 185.945312 125.015625 170.523438 131.453125 159.476562 142.894531 C 157.113281 145.339844 155.015625 147.960938 153.140625 150.792969 C 150.074219 155.570312 147.886719 160.773438 146.671875 166.308594 C 145.207031 172.632812 144.492188 181.835938 149.269531 189.714844 C 153.054688 196.039062 159.46875 199.910156 166.234375 204.121094 C 170.394531 206.675781 174.726562 209.3125 178.375 212.574219 C 183.441406 217.125 186.417969 222.148438 187.4375 227.863281 C 188.210938 232.046875 187.851562 236.519531 187.445312 240.855469 C 187 245.589844 186.605469 250.453125 187.652344 255.160156 C 189.929688 265.359375 198.402344 271.90625 205.160156 275.683594 C 209.886719 278.183594 214.953125 280.152344 220.226562 281.460938 Z M 188.957031 254.789062 C 187.960938 250.300781 188.355469 245.523438 188.757812 240.921875 C 189.117188 236.539062 189.5625 231.980469 188.746094 227.664062 C 187.675781 221.644531 184.566406 216.402344 179.320312 211.683594 C 175.632812 208.378906 171.253906 205.695312 167.003906 203.058594 C 160.371094 198.972656 154.089844 195.144531 150.441406 189.128906 C 145.933594 181.59375 146.652344 172.742188 147.992188 166.636719 C 149.164062 161.230469 151.351562 156.117188 154.332031 151.515625 C 164.988281 135.226562 183.582031 127.464844 201.519531 119.929688 C 205.039062 118.425781 208.730469 116.914062 212.203125 115.367188 C 217.195312 113.046875 222.09375 110.46875 226.8125 107.542969 L 230.238281 105.601562 C 235.347656 102.625 238.734375 98.582031 239.449219 94.457031 C 239.679688 92.703125 239.738281 90.863281 239.574219 89.070312 C 239.390625 85.96875 239.25 82.996094 241.398438 80.859375 C 243.292969 78.988281 246.390625 78.539062 251.132812 79.332031 C 272.375 82.984375 292.6875 96.238281 306.898438 115.550781 C 316.804688 129.070312 322.863281 145.242188 324.019531 161.238281 C 324.953125 174.699219 324.207031 187.140625 321.777344 198.382812 C 321.453125 199.789062 321.082031 201.152344 320.796875 202.25 C 319.355469 207.484375 317.519531 212.589844 315.242188 217.445312 C 312.921875 222.34375 310.246094 227.070312 307.21875 231.628906 C 303.898438 236.851562 300.222656 241.90625 296.28125 246.699219 C 292.550781 251.097656 288.550781 255.0625 284.25 259.25 L 282.914062 260.542969 C 281.667969 261.746094 280.464844 262.992188 279.128906 264.195312 C 277.582031 265.710938 276.246094 266.914062 274.949219 267.988281 C 272.40625 270.175781 269.597656 272.105469 266.691406 273.691406 C 262.3125 275.996094 257.753906 277.871094 253.007812 279.222656 C 249.261719 280.339844 245.46875 281.148438 241.625 281.566406 C 239.878906 281.773438 238.042969 281.890625 236.339844 281.964844 C 230.960938 282.101562 225.609375 281.496094 220.425781 280.1875 C 215.28125 278.921875 210.347656 276.992188 205.707031 274.40625 C 199.300781 270.886719 191.09375 264.507812 188.957031 254.789062 Z M 226.875 271.277344 C 231.578125 272.464844 236.445312 273.035156 241.253906 272.867188 C 242.875 272.792969 244.535156 272.675781 246.148438 272.429688 C 249.683594 271.972656 253.171875 271.214844 256.566406 270.101562 C 260.875 268.757812 265 266.894531 268.941406 264.679688 C 271.625 263.058594 274.175781 261.21875 276.457031 259.121094 C 277.664062 258.050781 278.871094 256.894531 280.203125 255.601562 C 281.539062 254.308594 282.910156 252.796875 284.285156 251.371094 C 288.070312 247.457031 291.671875 243.367188 295.011719 239.109375 C 298.34375 234.585938 301.5 229.894531 304.347656 224.984375 C 306.816406 221.003906 309.019531 216.851562 310.867188 212.53125 C 312.71875 208.210938 314.171875 203.765625 315.316406 199.195312 C 315.5625 198.140625 315.847656 196.957031 316.046875 195.769531 C 317.882812 185.761719 318.347656 174.859375 317.429688 162.359375 C 316.390625 147.9375 310.625 133.511719 301.183594 121.644531 C 288.65625 105.9375 272.246094 95.851562 254.917969 93.222656 C 252.285156 92.832031 248.519531 92.546875 246.105469 94.777344 C 243.953125 96.742188 243.910156 99.367188 243.914062 101.949219 C 243.933594 103.261719 243.828125 104.53125 243.585938 105.847656 C 242.648438 109.757812 238.714844 112.585938 236.464844 113.9375 C 234.257812 115.246094 232.136719 116.636719 230.148438 117.984375 C 227.035156 120.140625 223.832031 122.121094 220.40625 123.886719 C 215.242188 126.472656 209.636719 128.714844 204.207031 130.867188 C 192.34375 135.578125 180.132812 140.476562 171.40625 149.511719 C 169.6875 151.289062 168.148438 153.242188 166.738281 155.324219 C 163.925781 159.574219 161.996094 164.421875 161.167969 169.46875 C 159.734375 177.542969 161.085938 184.871094 164.945312 190.316406 C 168.398438 195.203125 173.703125 198.257812 179.316406 201.441406 C 183.472656 203.820312 187.714844 206.285156 191.140625 209.507812 C 195.324219 213.457031 197.765625 217.96875 198.554688 223.203125 C 199.101562 226.824219 198.816406 230.679688 198.488281 234.40625 C 198.125 238.613281 197.722656 243.039062 198.625 247.179688 C 200.578125 256.378906 207.902344 262.335938 213.695312 265.777344 C 217.851562 268.242188 222.261719 270.089844 226.875 271.277344 Z M 199.804688 247.03125 C 198.945312 243.019531 199.308594 238.722656 199.675781 234.605469 C 200 230.792969 200.28125 226.847656 199.78125 223.09375 C 198.9375 217.550781 196.363281 212.828125 192 208.703125 C 188.441406 205.351562 184.109375 202.890625 179.910156 200.46875 C 174.386719 197.285156 169.257812 194.3125 165.9375 189.644531 C 162.304688 184.5 161 177.476562 162.355469 169.753906 C 163.1875 164.882812 165.03125 160.210938 167.714844 156.09375 C 176.117188 143.476562 190.628906 137.710938 204.621094 132.128906 C 210.054688 129.976562 215.746094 127.730469 220.863281 125.105469 C 224.246094 123.296875 227.535156 121.3125 230.691406 119.113281 C 232.679688 117.765625 234.800781 116.371094 236.964844 115.109375 C 239.390625 113.667969 243.582031 110.574219 244.644531 106.265625 C 244.925781 104.90625 245.078125 103.503906 245.011719 102.148438 C 245.011719 99.742188 245.058594 97.464844 246.867188 95.859375 C 248.894531 94.027344 252.308594 94.230469 254.679688 94.628906 C 271.703125 97.21875 287.804688 107.175781 300.152344 122.625 C 309.457031 134.277344 315.132812 148.53125 316.167969 162.6875 C 317.039062 175.054688 316.613281 185.828125 314.777344 195.75 C 314.578125 196.933594 314.289062 198.035156 314.046875 199.085938 C 312.988281 203.570312 311.488281 207.972656 309.683594 212.246094 C 307.832031 216.480469 305.671875 220.585938 303.246094 224.523438 C 300.441406 229.386719 297.328125 234.035156 294.039062 238.511719 C 290.699219 242.769531 287.140625 246.816406 283.398438 250.6875 C 282.023438 252.113281 280.691406 253.492188 279.359375 254.871094 C 278.027344 256.25 276.820312 257.324219 275.65625 258.347656 C 273.417969 260.402344 270.953125 262.152344 268.3125 263.726562 C 264.5 265.894531 260.460938 267.671875 256.242188 269.015625 C 252.933594 270.125 249.492188 270.925781 246 271.339844 C 244.425781 271.539062 242.8125 271.699219 241.234375 271.726562 C 231.789062 271.980469 222.429688 269.648438 214.292969 264.890625 C 208.675781 261.53125 201.621094 255.75 199.804688 247.03125 Z M 233.570312 261.140625 C 237.65625 262.25 241.910156 262.746094 246.109375 262.585938 C 247.550781 262.515625 248.992188 262.359375 250.476562 262.160156 C 253.664062 261.710938 256.753906 260.910156 259.710938 259.808594 C 263.496094 258.472656 267.140625 256.660156 270.558594 254.542969 C 272.894531 253.015625 275.054688 251.316406 277.078125 249.398438 C 278.109375 248.417969 279.183594 247.304688 280.300781 246.148438 C 281.375 245.035156 282.492188 243.789062 283.820312 242.234375 C 287.039062 238.546875 290.035156 234.730469 292.765625 230.746094 C 295.582031 226.582031 297.996094 222.210938 300.371094 217.703125 C 302.277344 214.300781 303.878906 210.773438 305.347656 207.117188 C 306.726562 203.460938 307.84375 199.722656 308.609375 195.902344 C 308.8125 194.980469 308.96875 194.011719 309.128906 193.046875 C 310.335938 184.582031 310.519531 175.039062 309.710938 163.851562 C 308.789062 151.179688 303.363281 138.628906 294.4375 128.71875 C 284.175781 117.257812 271.40625 110.175781 258.46875 108.609375 C 256.453125 108.378906 253.5625 108.253906 251.664062 109.863281 C 249.894531 111.339844 249.625 113.226562 249.347656 115.023438 C 249.234375 115.945312 249.074219 116.824219 248.78125 117.660156 C 247.863281 120.214844 245.230469 122.316406 243.152344 123.578125 C 240.859375 125.0625 238.613281 126.675781 236.5 128.417969 C 234.171875 130.386719 231.621094 132.136719 229.023438 133.757812 C 223.304688 137.007812 216.78125 139.308594 210.519531 141.519531 C 200.644531 144.972656 190.511719 148.519531 183.421875 155.863281 C 182.175781 157.15625 181.058594 158.488281 180.078125 159.949219 C 177.519531 163.757812 175.933594 168.160156 175.402344 172.71875 C 174.5625 179.824219 176.386719 186.484375 180.359375 191.011719 C 183.484375 194.542969 187.945312 196.871094 192.226562 199.117188 C 196.289062 201.234375 200.484375 203.390625 203.648438 206.617188 C 206.898438 209.84375 208.984375 214.09375 209.460938 218.679688 C 209.820312 221.695312 209.570312 224.980469 209.316406 228.089844 C 209.035156 231.859375 208.664062 235.714844 209.429688 239.464844 C 210.679688 245.832031 215.160156 251.792969 222.101562 256.089844 C 225.644531 258.390625 229.523438 260.074219 233.570312 261.140625 Z M 210.652344 239.269531 C 209.933594 235.738281 210.261719 231.925781 210.546875 228.246094 C 210.796875 225.046875 211.089844 221.714844 210.726562 218.617188 C 210.25 213.765625 208.070312 209.253906 204.597656 205.8125 C 201.257812 202.503906 196.972656 200.257812 192.867188 198.097656 C 188.449219 195.8125 184.34375 193.652344 181.351562 190.25 C 177.601562 185.9375 175.917969 179.667969 176.71875 172.957031 C 177.167969 168.574219 178.710938 164.390625 181.1875 160.761719 C 188.015625 150.839844 199.191406 146.925781 211.019531 142.78125 C 217.371094 140.566406 223.980469 138.265625 229.742188 134.882812 C 232.425781 133.261719 234.976562 131.421875 237.390625 129.453125 C 239.507812 127.710938 241.710938 126.140625 243.960938 124.699219 C 246.167969 123.304688 249.058594 121.023438 250.101562 118.160156 C 250.394531 117.238281 250.640625 116.269531 250.753906 115.261719 C 250.984375 113.507812 251.222656 112.015625 252.601562 110.855469 C 254.152344 109.601562 256.738281 109.6875 258.492188 109.917969 C 271.117188 111.363281 283.625 118.363281 293.667969 129.609375 C 302.367188 139.300781 307.660156 151.546875 308.621094 164.003906 C 309.425781 175.101562 309.285156 184.601562 308.078125 192.980469 C 307.917969 193.945312 307.761719 194.910156 307.601562 195.789062 C 306.835938 199.519531 305.761719 203.214844 304.378906 206.78125 C 302.996094 210.351562 301.351562 213.835938 299.484375 217.195312 C 297.070312 221.65625 294.695312 225.988281 291.921875 230.105469 C 289.191406 234.089844 286.238281 237.859375 283.0625 241.503906 C 281.734375 243.058594 280.617188 244.304688 279.585938 245.371094 C 278.46875 246.53125 277.4375 247.597656 276.40625 248.578125 C 274.425781 250.449219 272.308594 252.105469 270.058594 253.546875 C 266.726562 255.660156 263.167969 257.386719 259.472656 258.71875 C 256.5625 259.777344 253.511719 260.53125 250.410156 260.976562 C 249.015625 261.179688 247.574219 261.335938 246.175781 261.359375 C 242.0625 261.519531 237.941406 261.066406 233.984375 259.996094 C 230.074219 258.972656 226.324219 257.328125 222.875 255.203125 C 216.105469 250.988281 211.808594 245.375 210.652344 239.269531 Z M 240.214844 250.960938 C 243.691406 251.996094 247.332031 252.414062 250.957031 252.21875 C 252.226562 252.152344 253.492188 252 254.800781 251.800781 C 257.59375 251.3125 260.292969 250.566406 262.898438 249.472656 C 266.203125 248.101562 269.324219 246.382812 272.21875 244.363281 C 274.207031 242.929688 276.0625 241.363281 277.78125 239.585938 C 278.683594 238.648438 279.628906 237.671875 280.527344 236.648438 C 281.429688 235.625 282.457031 234.382812 283.441406 233.097656 C 286.097656 229.726562 288.441406 226.140625 290.605469 222.382812 C 292.773438 218.625 294.625 214.566406 296.523438 210.464844 C 297.875 207.640625 299.007812 204.777344 299.917969 201.785156 C 300.828125 198.792969 301.519531 195.761719 301.988281 192.691406 C 302.0625 191.988281 302.226562 191.199219 302.253906 190.367188 C 303.015625 181.382812 302.507812 172.292969 301.949219 165.300781 C 301.050781 154.027344 295.921875 143.484375 287.691406 135.707031 C 280.039062 128.578125 270.910156 124.40625 262.019531 123.992188 C 260.53125 123.929688 258.695312 123.960938 257.308594 124.863281 C 256.183594 125.667969 255.328125 126.734375 254.871094 128.011719 C 254.660156 128.496094 254.40625 129.023438 254.152344 129.46875 C 253.429688 130.660156 252.050781 131.910156 249.972656 133.261719 C 247.726562 134.875 245.65625 136.660156 243.765625 138.617188 C 241.875 140.488281 239.890625 142.1875 237.773438 143.757812 C 232.238281 147.441406 225.359375 149.398438 218.738281 151.175781 C 210.378906 153.511719 201.757812 155.9375 195.867188 162.035156 C 195.050781 162.878906 194.277344 163.769531 193.597656 164.742188 C 191.292969 168.109375 189.960938 172.070312 189.8125 176.144531 C 189.570312 182.359375 191.820312 188.230469 195.996094 191.832031 C 198.707031 194.191406 202.144531 195.707031 205.539062 197.175781 C 209.464844 198.902344 213.519531 200.671875 216.375 203.769531 C 218.875 206.527344 220.246094 209.917969 220.539062 214.242188 C 220.628906 216.734375 220.539062 219.230469 220.277344 221.730469 C 219.984375 225.0625 219.738281 228.523438 220.277344 231.792969 C 221.207031 237.421875 224.886719 242.609375 230.511719 246.492188 C 233.566406 248.496094 236.832031 250.015625 240.214844 250.960938 Z M 221.542969 231.554688 C 221.007812 228.457031 221.253906 225.082031 221.503906 221.796875 C 221.765625 219.210938 221.894531 216.667969 221.765625 214.132812 C 221.464844 209.546875 220 205.894531 217.28125 202.921875 C 214.246094 199.5625 210.058594 197.753906 206.042969 196.03125 C 202.605469 194.515625 199.386719 193.128906 196.808594 190.898438 C 192.945312 187.507812 190.835938 182.03125 191.039062 176.210938 C 191.148438 172.355469 192.351562 168.617188 194.570312 165.425781 C 200.078125 157.585938 209.308594 155.0625 219.066406 152.351562 C 225.769531 150.484375 232.738281 148.527344 238.402344 144.707031 C 240.605469 143.136719 242.675781 141.351562 244.570312 139.480469 C 246.460938 137.609375 248.488281 135.867188 250.734375 134.339844 C 251.902344 133.574219 253.027344 132.679688 254.058594 131.699219 C 254.488281 131.253906 254.917969 130.722656 255.257812 130.191406 C 255.554688 129.707031 255.851562 129.132812 256.0625 128.644531 C 256.570312 127.585938 256.992188 126.703125 258.027344 125.988281 C 259.066406 125.269531 260.730469 125.238281 262.042969 125.304688 C 270.625 125.679688 279.449219 129.726562 286.921875 136.683594 C 294.929688 144.246094 299.832031 154.484375 300.769531 165.453125 C 301.328125 172.355469 301.792969 181.40625 301.027344 190.300781 C 300.953125 191.089844 300.878906 191.878906 300.761719 192.539062 C 300.332031 195.5625 299.683594 198.550781 298.773438 201.453125 C 297.859375 204.359375 296.730469 207.222656 295.421875 210.003906 C 293.523438 214.105469 291.667969 218.074219 289.546875 221.789062 C 287.464844 225.457031 285.078125 229 282.464844 232.324219 C 281.480469 233.613281 280.539062 234.765625 279.597656 235.832031 C 278.652344 236.898438 277.792969 237.878906 276.890625 238.722656 C 275.257812 240.414062 273.402344 241.980469 271.457031 243.371094 C 268.648438 245.386719 265.570312 247.0625 262.355469 248.34375 C 259.835938 249.347656 257.179688 250.140625 254.519531 250.578125 C 253.296875 250.777344 252.03125 250.929688 250.851562 250.992188 C 247.398438 251.1875 243.84375 250.765625 240.546875 249.816406 C 237.25 248.867188 234.074219 247.4375 231.238281 245.472656 C 225.878906 241.761719 222.425781 236.875 221.542969 231.554688 Z M 255.808594 241.851562 C 256.902344 241.785156 258.035156 241.59375 259.082031 241.398438 C 267.0625 239.816406 274.71875 234.738281 280.667969 227.0625 C 286.488281 219.609375 290.132812 210.3125 292.585938 203.050781 C 294.382812 198.074219 295.339844 192.808594 295.335938 187.46875 C 295.339844 180.335938 294.730469 173.039062 294.179688 166.574219 C 293.34375 156.304688 288.417969 147.332031 280.898438 142.566406 C 273.285156 137.710938 263.355469 137.839844 256.746094 142.8125 C 254.71875 144.464844 252.914062 146.335938 251.289062 148.375 C 249.832031 150.238281 248.15625 151.976562 246.34375 153.496094 C 241.339844 157.519531 234.535156 158.691406 227.949219 159.898438 C 220.707031 161.164062 213.292969 162.519531 208.347656 167.636719 C 207.832031 168.171875 207.363281 168.746094 206.890625 169.324219 C 201.730469 176.984375 203.703125 187.320312 211.363281 192.480469 C 211.410156 192.523438 211.410156 192.523438 211.453125 192.566406 C 213.710938 193.972656 216.394531 194.757812 218.945312 195.585938 C 222.816406 196.832031 226.46875 197.949219 228.839844 200.839844 C 231.878906 204.636719 231.441406 209.632812 231.054688 214.933594 C 230.800781 217.957031 230.546875 221.070312 230.949219 224.039062 C 232.816406 235.644531 245.277344 242.691406 255.808594 241.851562 Z M 232.347656 223.839844 C 231.949219 221.042969 232.203125 218.019531 232.414062 215.042969 C 232.886719 209.738281 233.273438 204.261719 229.917969 200.078125 C 227.324219 196.882812 223.320312 195.597656 219.40625 194.398438 C 216.898438 193.609375 214.300781 192.824219 212.136719 191.503906 C 205.050781 186.726562 203.175781 177.179688 207.910156 170.050781 C 212.441406 163.933594 220.074219 162.53125 228.144531 161.121094 C 234.90625 159.910156 241.839844 158.695312 247.0625 154.445312 C 247.882812 153.773438 248.65625 153.0625 249.386719 152.304688 C 250.375 151.28125 251.320312 150.214844 252.175781 149.148438 C 253.71875 147.195312 255.480469 145.371094 257.464844 143.761719 C 263.554688 139.148438 273.089844 139.070312 280.214844 143.539062 C 287.335938 148.007812 292.082031 156.722656 292.867188 166.597656 C 293.375 173.019531 293.984375 180.316406 293.976562 187.363281 C 293.9375 192.570312 293.019531 197.703125 291.265625 202.550781 C 288.808594 209.722656 285.207031 218.886719 279.515625 226.207031 C 273.695312 233.660156 266.34375 238.601562 258.667969 240.136719 C 257.621094 240.332031 256.574219 240.523438 255.523438 240.542969 C 245.738281 241.414062 233.941406 234.835938 232.347656 223.839844 Z M 232.347656 223.839844 " fill-opacity="1" fill-rule="nonzero"/></g></g></g></svg>